<svg xmlns="http://www.w3.org/2000/svg" width="404.999" height="98.851" viewBox="0 0 404.999 98.851"><g id="Ebene_2" data-name="Ebene 2"><g id="Ebene_1-2" data-name="Ebene 1"><path d="M37.557,70.82H17.7A17.063,17.063,0,0,1,5.015,65.729,17.589,17.589,0,0,1,0,52.866q0-7.721,4.965-12.455A17.709,17.709,0,0,1,17.7,35.681H37.557V41.8H17.7A11.14,11.14,0,0,0,6.122,53.381a10.832,10.832,0,0,0,3.268,8.18A11.5,11.5,0,0,0,17.7,64.695H37.557Z" fill="#fff"/><path d="M83.349,55.025q0,8.5-5.094,12.4-4.476,3.4-13.273,3.4h-2.11q-8.8,0-13.274-3.4-5.1-3.9-5.093-12.4V35.681h6.12V55.025q0,6.328,4.375,8.387,2.828,1.29,9.982,1.283,5.966,0,8.746-1.8,3.5-2.261,3.5-7.872V35.681h6.124Z" fill="#fff"/><polygon points="120.029 70.82 89.725 70.82 89.725 35.681 95.849 35.681 95.849 64.695 120.029 64.695 120.029 70.82" fill="#fff"/><rect x="126.099" y="35.681" width="6.122" height="63.17" fill="#fff"/><path d="M176.11,67.784q0,3.394-2.315,3.4-1.7,0-3.809-2.109L147.453,46.433V70.819h-6.071V38.714a3.483,3.483,0,0,1,.669-2.137,2.232,2.232,0,0,1,1.9-.9,5.115,5.115,0,0,1,3.5,1.8l22.533,22.588V35.68h6.124Z" fill="#fff"/><path d="M228.163,70.82l-7.872-.05-5.915-9.828H197.707l3.7-6.071h9.314L204.6,44.736,188.755,70.77h-7.871l19.088-31.749a8.168,8.168,0,0,1,2.008-2.26,4.758,4.758,0,0,1,2.779-1.185,4.544,4.544,0,0,1,2.773,1.133,8.049,8.049,0,0,1,2.01,2.312Z" fill="#fff"/><polygon points="279.107 70.82 248.804 70.82 248.804 35.681 254.929 35.681 254.929 64.695 279.107 64.695 279.107 70.82" fill="#fff"/><path d="M323.664,55.025q0,8.5-5.1,12.4-4.477,3.4-13.274,3.4h-2.109q-8.795,0-13.274-3.4-5.1-3.9-5.092-12.4V35.681h6.121V55.025q0,6.328,4.373,8.387,2.825,1.29,9.981,1.283,5.966,0,8.748-1.8,3.5-2.261,3.5-7.872V35.681h6.125Z" fill="#fff"/><path d="M368.317,70.82H348.461a17.069,17.069,0,0,1-12.686-5.091,17.6,17.6,0,0,1-5.017-12.863q0-7.721,4.966-12.455a17.712,17.712,0,0,1,12.737-4.73h19.856V41.8H348.461a11.14,11.14,0,0,0-11.578,11.579,10.832,10.832,0,0,0,3.268,8.18,11.5,11.5,0,0,0,8.31,3.134h19.856Z" fill="#fff"/><path d="M405,70.82H374.648V35.681H405V41.8h-24.23V64.695H405Zm-9.245-14.766H383.343V49.93h12.411Z" fill="#fff"/><path d="M114.453,14.3a14.713,14.713,0,0,1,29.414,0,14.713,14.713,0,0,1-29.414,0" fill="#f9b200"/></g></g></svg>